<svg width="17" height="21" viewBox="0 0 17 21" fill="none" xmlns="http://www.w3.org/2000/svg">
<path d="M8.41123 4.51392C7.63988 4.51392 6.88586 4.74265 6.24451 5.17119C5.60316 5.59973 5.10329 6.20882 4.80811 6.92146C4.51293 7.63409 4.43569 8.41825 4.58617 9.17477C4.73665 9.9313 5.1081 10.6262 5.65352 11.1716C6.19895 11.7171 6.89385 12.0885 7.65038 12.239C8.4069 12.3895 9.19107 12.3122 9.9037 12.0171C10.6163 11.7219 11.2254 11.222 11.654 10.5806C12.0825 9.93929 12.3112 9.18526 12.3112 8.41392C12.3112 7.90176 12.2104 7.39463 12.0144 6.92146C11.8184 6.44829 11.5311 6.01835 11.1689 5.6562C10.8068 5.29406 10.3769 5.00678 9.9037 4.81079C9.43053 4.6148 8.92338 4.51392 8.41123 4.51392ZM8.41123 10.6699C7.96483 10.6699 7.52847 10.5375 7.1573 10.2895C6.78614 10.0415 6.49686 9.68905 6.32604 9.27663C6.15521 8.86422 6.11052 8.41042 6.1976 7.9726C6.28469 7.53479 6.49965 7.13263 6.81529 6.81698C7.13094 6.50133 7.5331 6.28637 7.97092 6.19929C8.40873 6.1122 8.86254 6.15689 9.27495 6.32772C9.68736 6.49855 10.0399 6.78783 10.2879 7.159C10.5359 7.53016 10.6682 7.96653 10.6682 8.41292C10.6674 9.01127 10.4294 9.58488 10.0063 10.008C9.58321 10.4311 9.00958 10.6691 8.41123 10.6699Z" fill="#D9C3A9"/>
<path d="M8.413 0C6.18246 0.00238235 4.04397 0.889514 2.46674 2.46674C0.889512 4.04397 0.00238235 6.18247 0 8.413V8.646C0 10.992 1.345 13.726 4 16.772C5.19763 18.1433 6.50168 19.418 7.9 20.584L8.413 21L8.929 20.583C10.3273 19.417 11.6314 18.1424 12.829 16.771C15.482 13.725 16.829 10.991 16.829 8.645V8.413C16.8266 6.18195 15.9391 4.043 14.3612 2.46568C12.7833 0.88837 10.6441 0.00158818 8.413 0V0ZM15.184 8.646C15.184 12.611 10.075 17.41 8.413 18.867C6.75 17.41 1.642 12.61 1.642 8.646V8.413C1.642 7.52375 1.81715 6.64322 2.15745 5.82166C2.49775 5.0001 2.99653 4.25362 3.62532 3.62483C4.25412 2.99603 5.0006 2.49725 5.82216 2.15695C6.64371 1.81665 7.52425 1.6415 8.4135 1.6415C9.30274 1.6415 10.1833 1.81665 11.0048 2.15695C11.8264 2.49725 12.5729 2.99603 13.2017 3.62483C13.8305 4.25362 14.3292 5.0001 14.6695 5.82166C15.0098 6.64322 15.185 7.52375 15.185 8.413L15.184 8.646Z" fill="#D9C3A9"/>
</svg>
